<svg width="24" height="24" viewBox="0 0 24 24" fill="none" xmlns="http://www.w3.org/2000/svg">
<path d="M5.05499 3.24561C4.98912 3.17137 4.90918 3.11093 4.81979 3.06782C4.7304 3.0247 4.63333 2.99975 4.53423 2.99442C4.43512 2.98908 4.33595 3.00347 4.24245 3.03676C4.14894 3.07004 4.06298 3.12154 3.98953 3.18829C3.91608 3.25504 3.85661 3.3357 3.81456 3.42561C3.77252 3.51551 3.74874 3.61286 3.74459 3.71202C3.74045 3.81119 3.75603 3.91018 3.79043 4.00328C3.82483 4.09638 3.87736 4.18172 3.94499 4.25436L4.90592 5.31186C3.50692 6.79637 2.60845 8.68207 2.33686 10.7038C2.06528 12.7254 2.43424 14.7814 3.39186 16.5825L2.3278 19.7747C2.23966 20.039 2.22687 20.3226 2.29086 20.5937C2.35485 20.8649 2.49309 21.1129 2.6901 21.3099C2.8871 21.5069 3.13508 21.6451 3.40623 21.7091C3.67739 21.7731 3.961 21.7603 4.2253 21.6722L7.41749 20.6081C9.07881 21.4919 10.9604 21.876 12.8352 21.7141C14.71 21.5523 16.4978 20.8513 17.9831 19.6959L18.945 20.7544C19.0109 20.8286 19.0908 20.889 19.1802 20.9322C19.2696 20.9753 19.3666 21.0002 19.4657 21.0056C19.5648 21.0109 19.664 20.9965 19.7575 20.9632C19.851 20.9299 19.937 20.8784 20.0104 20.8117C20.0839 20.7449 20.1434 20.6643 20.1854 20.5744C20.2275 20.4845 20.2512 20.3871 20.2554 20.2879C20.2595 20.1888 20.2439 20.0898 20.2095 19.9967C20.1751 19.9036 20.1226 19.8183 20.055 19.7456L5.05499 3.24561ZM12 20.25C10.5497 20.251 9.12477 19.869 7.86936 19.1428C7.77738 19.0896 7.67515 19.0566 7.56945 19.046C7.46375 19.0353 7.35699 19.0472 7.25624 19.0809L3.74999 20.25L4.91905 16.7437C4.95275 16.643 4.96466 16.5362 4.95399 16.4305C4.94332 16.3248 4.91032 16.2226 4.85717 16.1306C3.97841 14.6105 3.60757 12.8496 3.7986 11.1041C3.98964 9.35867 4.73258 7.7197 5.91936 6.42561L16.9687 18.584C15.5383 19.666 13.7935 20.251 12 20.25ZM21.75 12C21.75 13.6112 21.3513 15.1974 20.5894 16.6172C20.4942 16.7907 20.3344 16.9196 20.1446 16.9758C19.9549 17.032 19.7506 17.011 19.5763 16.9172C19.4021 16.8235 19.2719 16.6646 19.2142 16.4753C19.1565 16.286 19.176 16.0816 19.2684 15.9065C20.0776 14.4035 20.4005 12.6864 20.1928 10.992C19.985 9.29763 19.2568 7.70943 18.1085 6.44634C16.9602 5.18324 15.4483 4.30746 13.7814 3.93972C12.1144 3.57198 10.3744 3.73039 8.80124 4.39311C8.61786 4.47031 8.41133 4.47151 8.22708 4.39644C8.04282 4.32136 7.89594 4.17617 7.81874 3.9928C7.74153 3.80943 7.74034 3.6029 7.81541 3.41864C7.89048 3.23439 8.03568 3.0875 8.21905 3.0103C9.70147 2.38815 11.3147 2.14199 12.9152 2.29374C14.5157 2.44548 16.0539 2.99042 17.3929 3.88008C18.732 4.76973 19.8305 5.97654 20.5906 7.39316C21.3508 8.80978 21.749 10.3923 21.75 12Z" fill="#60646C"/>
</svg>
