<svg width="24" height="24" viewBox="0 0 24 24" fill="none" xmlns="http://www.w3.org/2000/svg">
<path d="M21.7378 10.6875L5.98785 1.6978C5.72218 1.54825 5.41725 1.48319 5.11368 1.51131C4.81011 1.53942 4.52232 1.65937 4.28864 1.85517C4.05496 2.05098 3.88649 2.31334 3.80567 2.6073C3.72486 2.90126 3.73554 3.21287 3.83629 3.50061L6.70785 12L3.83629 20.5003C3.75637 20.7265 3.73187 20.9686 3.76485 21.2062C3.79782 21.4438 3.88731 21.67 4.0258 21.8659C4.16428 22.0618 4.34773 22.2216 4.56075 22.3319C4.77377 22.4423 5.01014 22.4999 5.25004 22.5C5.51066 22.4994 5.76674 22.4316 5.99347 22.3031L21.736 13.2984C21.9682 13.1684 22.1616 12.9788 22.2964 12.7493C22.4311 12.5198 22.5024 12.2586 22.5029 11.9925C22.5034 11.7263 22.433 11.4648 22.2991 11.2348C22.1651 11.0048 21.9724 10.8146 21.7407 10.6837L21.7378 10.6875ZM5.25004 21C5.25044 20.9962 5.25044 20.9925 5.25004 20.9887L8.03816 12.75H13.5C13.6989 12.75 13.8897 12.671 14.0304 12.5303C14.171 12.3897 14.25 12.1989 14.25 12C14.25 11.8011 14.171 11.6103 14.0304 11.4697C13.8897 11.329 13.6989 11.25 13.5 11.25H8.03816L5.25566 3.01499C5.25474 3.00968 5.25283 3.00459 5.25004 2.99999L21 11.9841L5.25004 21Z" fill="#60646C"/>
</svg>
